# Blender v2.80 (sub 75) OBJ File: 'doggomodel.blend'
# www.blender.org
mtllib torusthing.mtl
o Torus.001
v 1.020000 0.000000 0.000000
v 1.017321 0.010000 0.000000
v 1.010000 0.017321 0.000000
v 1.000000 0.020000 0.000000
v 0.990000 0.017321 0.000000
v 0.982679 0.010000 0.000000
v 0.980000 0.000000 0.000000
v 0.982679 -0.010000 0.000000
v 0.990000 -0.017321 0.000000
v 1.000000 -0.020000 0.000000
v 1.010000 -0.017321 0.000000
v 1.017321 -0.010000 0.000000
v 0.510000 0.000000 -0.883346
v 0.508660 0.010000 -0.881025
v 0.505000 0.017321 -0.874686
v 0.500000 0.020000 -0.866025
v 0.495000 0.017321 -0.857365
v 0.491340 0.010000 -0.851025
v 0.490000 0.000000 -0.848705
v 0.491340 -0.010000 -0.851025
v 0.495000 -0.017321 -0.857365
v 0.500000 -0.020000 -0.866025
v 0.505000 -0.017321 -0.874686
v 0.508660 -0.010000 -0.881025
v -0.510000 0.000000 -0.883346
v -0.508660 0.010000 -0.881025
v -0.505000 0.017321 -0.874686
v -0.500000 0.020000 -0.866026
v -0.495000 0.017321 -0.857365
v -0.491340 0.010000 -0.851026
v -0.490000 0.000000 -0.848705
v -0.491340 -0.010000 -0.851026
v -0.495000 -0.017321 -0.857365
v -0.500000 -0.020000 -0.866026
v -0.505000 -0.017321 -0.874686
v -0.508660 -0.010000 -0.881025
v -1.020000 0.000000 -0.000000
v -1.017321 0.010000 -0.000000
v -1.010000 0.017321 -0.000000
v -1.000000 0.020000 -0.000000
v -0.990000 0.017321 -0.000000
v -0.982679 0.010000 -0.000000
v -0.980000 0.000000 -0.000000
v -0.982679 -0.010000 -0.000000
v -0.990000 -0.017321 -0.000000
v -1.000000 -0.020000 -0.000000
v -1.010000 -0.017321 -0.000000
v -1.017321 -0.010000 -0.000000
v -0.510000 0.000000 0.883346
v -0.508660 0.010000 0.881025
v -0.505000 0.017321 0.874686
v -0.500000 0.020000 0.866026
v -0.495000 0.017321 0.857365
v -0.491340 0.010000 0.851026
v -0.490000 0.000000 0.848705
v -0.491340 -0.010000 0.851026
v -0.495000 -0.017321 0.857365
v -0.500000 -0.020000 0.866026
v -0.505000 -0.017321 0.874686
v -0.508660 -0.010000 0.881025
v 0.510000 0.000000 0.883346
v 0.508660 0.010000 0.881025
v 0.505000 0.017321 0.874686
v 0.500000 0.020000 0.866025
v 0.495000 0.017321 0.857365
v 0.491340 0.010000 0.851025
v 0.490000 0.000000 0.848705
v 0.491340 -0.010000 0.851025
v 0.495000 -0.017321 0.857365
v 0.500000 -0.020000 0.866025
v 0.505000 -0.017321 0.874686
v 0.508660 -0.010000 0.881025
vt 0.500000 0.500000
vt 0.666667 0.500000
vt 0.666667 0.583333
vt 0.500000 0.583333
vt 0.666667 0.666667
vt 0.500000 0.666667
vt 0.666667 0.750000
vt 0.500000 0.750000
vt 0.666667 0.833333
vt 0.500000 0.833333
vt 0.666667 0.916667
vt 0.500000 0.916667
vt 0.666667 1.000000
vt 0.500000 1.000000
vt 0.500000 0.000000
vt 0.666667 0.000000
vt 0.666667 0.083333
vt 0.500000 0.083333
vt 0.666667 0.166667
vt 0.500000 0.166667
vt 0.666667 0.250000
vt 0.500000 0.250000
vt 0.666667 0.333333
vt 0.500000 0.333333
vt 0.666667 0.416667
vt 0.500000 0.416667
vt 0.833333 0.500000
vt 0.833333 0.583333
vt 0.833333 0.666667
vt 0.833333 0.750000
vt 0.833333 0.833333
vt 0.833333 0.916667
vt 0.833333 1.000000
vt 0.833333 0.000000
vt 0.833333 0.083333
vt 0.833333 0.166667
vt 0.833333 0.250000
vt 0.833333 0.333333
vt 0.833333 0.416667
vt 1.000000 0.500000
vt 1.000000 0.583333
vt 1.000000 0.666667
vt 1.000000 0.750000
vt 1.000000 0.833333
vt 1.000000 0.916667
vt 1.000000 1.000000
vt 1.000000 0.000000
vt 1.000000 0.083333
vt 1.000000 0.166667
vt 1.000000 0.250000
vt 1.000000 0.333333
vt 1.000000 0.416667
vt -0.000000 0.500000
vt 0.166667 0.500000
vt 0.166667 0.583333
vt -0.000000 0.583333
vt 0.166667 0.666667
vt -0.000000 0.666667
vt 0.166667 0.750000
vt -0.000000 0.750000
vt 0.166667 0.833333
vt -0.000000 0.833333
vt 0.166667 0.916667
vt -0.000000 0.916667
vt 0.166667 1.000000
vt -0.000000 1.000000
vt -0.000000 0.000000
vt 0.166667 0.000000
vt 0.166667 0.083333
vt -0.000000 0.083333
vt 0.166667 0.166667
vt -0.000000 0.166667
vt 0.166667 0.250000
vt -0.000000 0.250000
vt 0.166667 0.333333
vt -0.000000 0.333333
vt 0.166667 0.416667
vt -0.000000 0.416667
vt 0.333333 0.500000
vt 0.333333 0.583333
vt 0.333333 0.666667
vt 0.333333 0.750000
vt 0.333333 0.833333
vt 0.333333 0.916667
vt 0.333333 1.000000
vt 0.333333 0.000000
vt 0.333333 0.083333
vt 0.333333 0.166667
vt 0.333333 0.250000
vt 0.333333 0.333333
vt 0.333333 0.416667
vn 0.8436 0.2260 -0.4871
vn 0.6547 0.6547 -0.3780
vn 0.2560 0.9553 -0.1478
vn -0.2560 0.9553 0.1478
vn -0.6547 0.6547 0.3780
vn -0.8436 0.2260 0.4871
vn -0.8436 -0.2260 0.4871
vn -0.6547 -0.6547 0.3780
vn -0.2560 -0.9553 0.1478
vn 0.2560 -0.9553 -0.1478
vn 0.6547 -0.6547 -0.3780
vn 0.8436 -0.2260 -0.4871
vn 0.0000 0.2260 -0.9741
vn 0.0000 0.6547 -0.7559
vn 0.0000 0.9553 -0.2956
vn -0.0000 0.9553 0.2956
vn 0.0000 0.6547 0.7559
vn -0.0000 0.2260 0.9741
vn -0.0000 -0.2260 0.9741
vn 0.0000 -0.6547 0.7559
vn -0.0000 -0.9553 0.2956
vn 0.0000 -0.9553 -0.2956
vn 0.0000 -0.6547 -0.7559
vn 0.0000 -0.2260 -0.9741
vn -0.8436 0.2260 -0.4871
vn -0.6547 0.6547 -0.3780
vn -0.2560 0.9553 -0.1478
vn 0.2560 0.9553 0.1478
vn 0.6547 0.6547 0.3780
vn 0.8436 0.2260 0.4871
vn 0.8436 -0.2260 0.4871
vn 0.6547 -0.6547 0.3780
vn 0.2560 -0.9553 0.1478
vn -0.2560 -0.9553 -0.1478
vn -0.6547 -0.6547 -0.3780
vn -0.8436 -0.2260 -0.4871
usemtl None
s off
f 1/1/1 13/2/1 14/3/1 2/4/1
f 2/4/2 14/3/2 15/5/2 3/6/2
f 3/6/3 15/5/3 16/7/3 4/8/3
f 4/8/4 16/7/4 17/9/4 5/10/4
f 5/10/5 17/9/5 18/11/5 6/12/5
f 6/12/6 18/11/6 19/13/6 7/14/6
f 7/15/7 19/16/7 20/17/7 8/18/7
f 8/18/8 20/17/8 21/19/8 9/20/8
f 9/20/9 21/19/9 22/21/9 10/22/9
f 10/22/10 22/21/10 23/23/10 11/24/10
f 11/24/11 23/23/11 24/25/11 12/26/11
f 12/26/12 24/25/12 13/2/12 1/1/12
f 13/2/13 25/27/13 26/28/13 14/3/13
f 14/3/14 26/28/14 27/29/14 15/5/14
f 15/5/15 27/29/15 28/30/15 16/7/15
f 16/7/16 28/30/16 29/31/16 17/9/16
f 17/9/17 29/31/17 30/32/17 18/11/17
f 18/11/18 30/32/18 31/33/18 19/13/18
f 19/16/19 31/34/19 32/35/19 20/17/19
f 20/17/20 32/35/20 33/36/20 21/19/20
f 21/19/21 33/36/21 34/37/21 22/21/21
f 22/21/22 34/37/22 35/38/22 23/23/22
f 23/23/23 35/38/23 36/39/23 24/25/23
f 24/25/24 36/39/24 25/27/24 13/2/24
f 25/27/25 37/40/25 38/41/25 26/28/25
f 26/28/26 38/41/26 39/42/26 27/29/26
f 27/29/27 39/42/27 40/43/27 28/30/27
f 28/30/28 40/43/28 41/44/28 29/31/28
f 29/31/29 41/44/29 42/45/29 30/32/29
f 30/32/30 42/45/30 43/46/30 31/33/30
f 31/34/31 43/47/31 44/48/31 32/35/31
f 32/35/32 44/48/32 45/49/32 33/36/32
f 33/36/33 45/49/33 46/50/33 34/37/33
f 34/37/34 46/50/34 47/51/34 35/38/34
f 35/38/35 47/51/35 48/52/35 36/39/35
f 36/39/36 48/52/36 37/40/36 25/27/36
f 37/53/6 49/54/6 50/55/6 38/56/6
f 38/56/5 50/55/5 51/57/5 39/58/5
f 39/58/4 51/57/4 52/59/4 40/60/4
f 40/60/3 52/59/3 53/61/3 41/62/3
f 41/62/2 53/61/2 54/63/2 42/64/2
f 42/64/1 54/63/1 55/65/1 43/66/1
f 43/67/12 55/68/12 56/69/12 44/70/12
f 44/70/11 56/69/11 57/71/11 45/72/11
f 45/72/10 57/71/10 58/73/10 46/74/10
f 46/74/9 58/73/9 59/75/9 47/76/9
f 47/76/8 59/75/8 60/77/8 48/78/8
f 48/78/7 60/77/7 49/54/7 37/53/7
f 49/54/18 61/79/18 62/80/18 50/55/18
f 50/55/17 62/80/17 63/81/17 51/57/17
f 51/57/16 63/81/16 64/82/16 52/59/16
f 52/59/15 64/82/15 65/83/15 53/61/15
f 53/61/14 65/83/14 66/84/14 54/63/14
f 54/63/13 66/84/13 67/85/13 55/65/13
f 55/68/24 67/86/24 68/87/24 56/69/24
f 56/69/23 68/87/23 69/88/23 57/71/23
f 57/71/22 69/88/22 70/89/22 58/73/22
f 58/73/21 70/89/21 71/90/21 59/75/21
f 59/75/20 71/90/20 72/91/20 60/77/20
f 60/77/19 72/91/19 61/79/19 49/54/19
f 61/79/30 1/1/30 2/4/30 62/80/30
f 62/80/29 2/4/29 3/6/29 63/81/29
f 63/81/28 3/6/28 4/8/28 64/82/28
f 64/82/27 4/8/27 5/10/27 65/83/27
f 65/83/26 5/10/26 6/12/26 66/84/26
f 66/84/25 6/12/25 7/14/25 67/85/25
f 67/86/36 7/15/36 8/18/36 68/87/36
f 68/87/35 8/18/35 9/20/35 69/88/35
f 69/88/34 9/20/34 10/22/34 70/89/34
f 70/89/33 10/22/33 11/24/33 71/90/33
f 71/90/32 11/24/32 12/26/32 72/91/32
f 72/91/31 12/26/31 1/1/31 61/79/31
